<svg width="422" height="129" viewBox="0 0 422 129" fill="none" xmlns="http://www.w3.org/2000/svg">
<mask id="path-1-outside-1_282_2" maskUnits="userSpaceOnUse" x="2.71429" y="17.2273" width="102" height="95" fill="black">
<rect fill="white" x="2.71429" y="17.2273" width="102" height="95"/>
<path d="M53.8343 107.763C46.7516 107.763 40.3516 106.825 34.6343 104.947C28.917 103.07 24.0103 100.339 19.9143 96.7553C15.9036 93.0859 12.789 88.6059 10.5703 83.3153C8.43696 78.0246 7.37029 72.0513 7.37029 65.3953C7.37029 58.6539 8.52229 52.5953 10.8263 47.2193C13.1303 41.8433 16.4156 37.2779 20.6823 33.5233C24.949 29.6833 30.0263 26.7819 35.9143 24.8193C41.8023 22.7713 48.2876 21.7473 55.3703 21.7473C63.6476 21.7473 70.8156 23.0273 76.8743 25.5873C82.933 28.1473 87.7543 31.7313 91.3383 36.3393C94.9223 40.8619 96.9703 46.2379 97.4823 52.4673H84.0423C82.933 48.7979 81.0983 45.6406 78.5383 42.9953C76.0636 40.3499 72.8636 38.3019 68.9383 36.8513C65.0983 35.3153 60.5756 34.5473 55.3703 34.5473C48.5436 34.5473 42.613 35.8699 37.5783 38.5153C32.629 41.0753 28.8316 44.7019 26.1863 49.3953C23.541 54.0033 22.2183 59.3366 22.2183 65.3953C22.2183 71.4539 23.3703 76.7019 25.6743 81.1393C28.0636 85.4913 31.6476 88.9046 36.4263 91.3793C41.205 93.7686 47.1356 94.9633 54.2183 94.9633C59.6796 94.9633 64.4583 94.1526 68.5543 92.5313C72.7356 90.8246 76.1916 88.4779 78.9223 85.4913C81.653 82.5046 83.573 79.0486 84.6823 75.1233L91.2103 73.5873C90.0156 84.5953 86.0903 93.0433 79.4343 98.9313C72.8636 104.819 64.3303 107.763 53.8343 107.763ZM87.7543 106.227C87.7543 103.497 87.8823 100.425 88.1383 97.0113C88.3943 93.5126 88.693 89.9713 89.0343 86.3873C89.461 82.7179 89.845 79.4326 90.1863 76.5313H55.8823V66.0353H100.682V106.227H87.7543Z"/>
</mask>
<path d="M53.8343 107.763C46.7516 107.763 40.3516 106.825 34.6343 104.947C28.917 103.07 24.0103 100.339 19.9143 96.7553C15.9036 93.0859 12.789 88.6059 10.5703 83.3153C8.43696 78.0246 7.37029 72.0513 7.37029 65.3953C7.37029 58.6539 8.52229 52.5953 10.8263 47.2193C13.1303 41.8433 16.4156 37.2779 20.6823 33.5233C24.949 29.6833 30.0263 26.7819 35.9143 24.8193C41.8023 22.7713 48.2876 21.7473 55.3703 21.7473C63.6476 21.7473 70.8156 23.0273 76.8743 25.5873C82.933 28.1473 87.7543 31.7313 91.3383 36.3393C94.9223 40.8619 96.9703 46.2379 97.4823 52.4673H84.0423C82.933 48.7979 81.0983 45.6406 78.5383 42.9953C76.0636 40.3499 72.8636 38.3019 68.9383 36.8513C65.0983 35.3153 60.5756 34.5473 55.3703 34.5473C48.5436 34.5473 42.613 35.8699 37.5783 38.5153C32.629 41.0753 28.8316 44.7019 26.1863 49.3953C23.541 54.0033 22.2183 59.3366 22.2183 65.3953C22.2183 71.4539 23.3703 76.7019 25.6743 81.1393C28.0636 85.4913 31.6476 88.9046 36.4263 91.3793C41.205 93.7686 47.1356 94.9633 54.2183 94.9633C59.6796 94.9633 64.4583 94.1526 68.5543 92.5313C72.7356 90.8246 76.1916 88.4779 78.9223 85.4913C81.653 82.5046 83.573 79.0486 84.6823 75.1233L91.2103 73.5873C90.0156 84.5953 86.0903 93.0433 79.4343 98.9313C72.8636 104.819 64.3303 107.763 53.8343 107.763ZM87.7543 106.227C87.7543 103.497 87.8823 100.425 88.1383 97.0113C88.3943 93.5126 88.693 89.9713 89.0343 86.3873C89.461 82.7179 89.845 79.4326 90.1863 76.5313H55.8823V66.0353H100.682V106.227H87.7543Z" fill="#003C43"/>
<path d="M19.9143 96.7553L17.4457 99.4535L17.4756 99.4809L17.5061 99.5076L19.9143 96.7553ZM10.5703 83.3153L7.17851 84.6829L7.18794 84.7063L7.1977 84.7296L10.5703 83.3153ZM10.8263 47.2193L14.1877 48.6599L14.1877 48.6599L10.8263 47.2193ZM20.6823 33.5233L23.0983 36.2687L23.1136 36.2553L23.1288 36.2416L20.6823 33.5233ZM35.9143 24.8193L37.0708 28.2887L37.0933 28.2812L37.1157 28.2734L35.9143 24.8193ZM76.8743 25.5873L78.2977 22.2185L78.2977 22.2185L76.8743 25.5873ZM91.3383 36.3393L88.4515 38.5845L88.4617 38.5976L88.472 38.6107L91.3383 36.3393ZM97.4823 52.4673V56.1244H101.452L101.127 52.1677L97.4823 52.4673ZM84.0423 52.4673L80.5416 53.5256L81.3273 56.1244H84.0423V52.4673ZM78.5383 42.9953L75.8676 45.4937L75.8887 45.5163L75.9103 45.5385L78.5383 42.9953ZM68.9383 36.8513L67.5801 40.2468L67.6251 40.2648L67.6706 40.2816L68.9383 36.8513ZM37.5783 38.5153L39.2585 41.7636L39.2689 41.7582L39.2793 41.7527L37.5783 38.5153ZM26.1863 49.3953L29.358 51.216L29.3651 51.2035L29.3722 51.191L26.1863 49.3953ZM25.6743 81.1393L22.4286 82.8245L22.4481 82.8622L22.4685 82.8993L25.6743 81.1393ZM36.4263 91.3793L34.7445 94.6268L34.7676 94.6387L34.7908 94.6503L36.4263 91.3793ZM68.5543 92.5313L69.9003 95.9317L69.9184 95.9246L69.9363 95.9172L68.5543 92.5313ZM78.9223 85.4913L76.2232 83.0235L76.2232 83.0235L78.9223 85.4913ZM84.6823 75.1233L83.8447 71.5633L81.7486 72.0565L81.163 74.1287L84.6823 75.1233ZM91.2103 73.5873L94.8461 73.9819L95.4037 68.8436L90.3727 70.0273L91.2103 73.5873ZM79.4343 98.9313L77.0112 96.1921L77.0024 96.1998L76.9937 96.2077L79.4343 98.9313ZM87.7543 106.227H84.0972V109.884H87.7543V106.227ZM88.1383 97.0113L91.7852 97.2848L91.7857 97.2782L88.1383 97.0113ZM89.0343 86.3873L85.4016 85.9649L85.3972 86.0027L85.3936 86.0405L89.0343 86.3873ZM90.1863 76.5313L93.8184 76.9586L94.2989 72.8741H90.1863V76.5313ZM55.8823 76.5313H52.2252V80.1884H55.8823V76.5313ZM55.8823 66.0353V62.3781H52.2252V66.0353H55.8823ZM100.682 66.0353H104.339V62.3781H100.682V66.0353ZM100.682 106.227V109.884H104.339V106.227H100.682ZM53.8343 104.106C47.0724 104.106 41.0658 103.21 35.7752 101.473L33.4934 108.422C39.6375 110.439 46.4309 111.42 53.8343 111.42V104.106ZM35.7752 101.473C30.4751 99.7323 26.0116 97.2309 22.3225 94.003L17.5061 99.5076C22.009 103.448 27.3589 106.408 33.4934 108.422L35.7752 101.473ZM22.3829 94.057C18.7845 90.7649 15.9683 86.7309 13.9429 81.901L7.1977 84.7296C9.60958 90.481 13.0227 95.407 17.4457 99.4535L22.3829 94.057ZM13.9621 81.9476C12.0307 77.1578 11.0274 71.6596 11.0274 65.3953H3.71315C3.71315 72.4429 4.84323 78.8914 7.17851 84.6829L13.9621 81.9476ZM11.0274 65.3953C11.0274 59.0742 12.1064 53.5165 14.1877 48.6599L7.46485 45.7786C4.93824 51.6741 3.71315 58.2336 3.71315 65.3953H11.0274ZM14.1877 48.6599C16.284 43.7687 19.2519 39.6535 23.0983 36.2687L18.2663 30.7778C13.5793 34.9023 9.97664 39.9178 7.46485 45.7787L14.1877 48.6599ZM23.1288 36.2416C26.9921 32.7646 31.6207 30.1054 37.0708 28.2887L34.7578 21.3498C28.4319 23.4584 22.9058 26.6019 18.2358 30.8049L23.1288 36.2416ZM37.1157 28.2734C42.5687 26.3767 48.6417 25.4044 55.3703 25.4044V18.0901C47.9336 18.0901 41.0358 19.1658 34.7128 21.3651L37.1157 28.2734ZM55.3703 25.4044C63.2806 25.4044 69.9428 26.6287 75.4509 28.956L78.2977 22.2185C71.6885 19.4259 64.0147 18.0901 55.3703 18.0901V25.4044ZM75.4509 28.956C81.008 31.3041 85.2979 34.5299 88.4515 38.5845L94.2251 34.094C90.2107 28.9327 84.8579 24.9904 78.2977 22.2185L75.4509 28.956ZM88.472 38.6107C91.57 42.52 93.3795 47.1946 93.8374 52.7668L101.127 52.1677C100.561 45.2812 98.2746 39.2038 94.2046 34.0679L88.472 38.6107ZM97.4823 48.8101H84.0423V56.1244H97.4823V48.8101ZM87.543 51.4089C86.2723 47.206 84.1482 43.5333 81.1663 40.452L75.9103 45.5385C78.0484 47.7479 79.5936 50.3899 80.5416 53.5256L87.543 51.4089ZM81.209 40.4969C78.2893 37.3758 74.5822 35.0382 70.2061 33.4209L67.6706 40.2816C71.1451 41.5657 73.8379 43.324 75.8676 45.4937L81.209 40.4969ZM70.2965 33.4557C65.9287 31.7086 60.9252 30.8901 55.3703 30.8901V38.2044C60.2261 38.2044 64.2679 38.922 67.5801 40.2468L70.2965 33.4557ZM55.3703 30.8901C48.0689 30.8901 41.5319 32.3067 35.8773 35.2778L39.2793 41.7527C43.6941 39.4331 49.0183 38.2044 55.3703 38.2044V30.8901ZM35.8981 35.2669C30.339 38.1423 26.0079 42.2636 23.0004 47.5996L29.3722 51.191C31.6553 47.1403 34.9189 44.0082 39.2585 41.7636L35.8981 35.2669ZM23.0146 47.5745C20.0087 52.8106 18.5612 58.7888 18.5612 65.3953H25.8754C25.8754 59.8844 27.0732 55.196 29.358 51.216L23.0146 47.5745ZM18.5612 65.3953C18.5612 71.9176 19.8028 77.7675 22.4286 82.8245L28.92 79.454C26.9378 75.6364 25.8754 70.9902 25.8754 65.3953H18.5612ZM22.4685 82.8993C25.2365 87.941 29.3781 91.8478 34.7445 94.6268L38.108 88.1317C33.9171 85.9614 30.8907 83.0415 28.8801 79.3792L22.4685 82.8993ZM34.7908 94.6503C40.2149 97.3624 46.745 98.6204 54.2183 98.6204V91.3061C47.5263 91.3061 42.195 90.1748 38.0618 88.1082L34.7908 94.6503ZM54.2183 98.6204C60.0337 98.6204 65.2867 97.7579 69.9003 95.9317L67.2083 89.1308C63.6299 90.5473 59.3255 91.3061 54.2183 91.3061V98.6204ZM69.9363 95.9172C74.5606 94.0298 78.4847 91.3898 81.6214 87.959L76.2232 83.0235C73.8986 85.5661 70.9106 87.6195 67.1723 89.1453L69.9363 95.9172ZM81.6214 87.959C84.7396 84.5484 86.9386 80.5869 88.2016 76.1179L81.163 74.1287C80.2073 77.5103 78.5663 80.4608 76.2232 83.0235L81.6214 87.959ZM85.5199 78.6832L92.0479 77.1472L90.3727 70.0273L83.8447 71.5633L85.5199 78.6832ZM87.5745 73.1927C86.4529 83.5276 82.8284 91.0461 77.0112 96.1921L81.8574 101.67C89.3522 95.0405 93.5784 85.6629 94.8461 73.9819L87.5745 73.1927ZM76.9937 96.2077C71.217 101.384 63.6099 104.106 53.8343 104.106V111.42C65.0507 111.42 74.5103 108.254 81.8749 101.655L76.9937 96.2077ZM91.4114 106.227C91.4114 103.607 91.5344 100.629 91.7852 97.2848L84.4914 96.7378C84.2302 100.22 84.0972 103.386 84.0972 106.227H91.4114ZM91.7857 97.2782C92.0397 93.8068 92.3361 90.2921 92.675 86.734L85.3936 86.0405C85.0498 89.6504 84.7489 93.2184 84.4909 96.7444L91.7857 97.2782ZM92.667 86.8097C93.0935 83.1416 93.4773 79.8579 93.8184 76.9586L86.5542 76.104C86.2126 79.0073 85.8284 82.2943 85.4016 85.9649L92.667 86.8097ZM90.1863 72.8741H55.8823V80.1884H90.1863V72.8741ZM59.5394 76.5313V66.0353H52.2252V76.5313H59.5394ZM55.8823 69.6924H100.682V62.3781H55.8823V69.6924ZM97.0252 66.0353V106.227H104.339V66.0353H97.0252ZM100.682 102.57H87.7543V109.884H100.682V102.57Z" fill="#003C43" mask="url(#path-1-outside-1_282_2)"/>
<path d="M55.5714 62.3987H53.7429V64.2273V76.9257V78.7543H55.5714H85.7429V109.942V111.77H87.5714H101.286H103.114V109.942V64.2273V62.3987H101.286H55.5714Z" fill="#007F73" stroke="#007F73" stroke-width="3.65714"/>
<path d="M162.896 91.1781C159.337 91.1781 156.021 90.4833 152.949 89.0936C149.901 87.7038 147.244 85.7899 144.976 83.3518C142.709 80.8894 140.929 78.0612 139.637 74.8673C138.369 71.649 137.735 68.2113 137.735 64.5541C137.735 60.7019 138.418 57.1667 139.783 53.9484C141.173 50.7301 143.062 47.9385 145.452 45.5736C147.841 43.2086 150.547 41.38 153.571 40.0878C156.618 38.7956 159.788 38.1496 163.079 38.1496C166.761 38.1496 170.333 39.0151 173.795 40.7461C177.281 42.4528 180.353 45.0981 183.011 48.6821L175.038 52.961C173.405 50.9617 171.527 49.4745 169.406 48.4993C167.309 47.4996 165.164 46.9998 162.97 46.9998C160.824 46.9998 158.764 47.4387 156.789 48.3164C154.838 49.1941 153.095 50.4376 151.559 52.0467C150.048 53.6315 148.853 55.5088 147.975 57.6787C147.098 59.8242 146.659 62.177 146.659 64.737C146.659 67.1507 147.085 69.4303 147.939 71.5758C148.792 73.697 149.962 75.5621 151.45 77.1713C152.961 78.756 154.704 79.9995 156.679 80.9016C158.654 81.8037 160.775 82.2547 163.043 82.2547C164.554 82.2547 166.029 82.0231 167.468 81.5598C168.931 81.0722 170.296 80.3774 171.564 79.4753C172.856 78.5732 174.002 77.476 175.002 76.1838C176.026 74.8917 176.879 73.4288 177.562 71.7953H168.236V64.0056H188.058C188.155 67.7358 187.57 71.2345 186.302 74.5016C185.034 77.7686 183.242 80.6577 180.926 83.169C178.61 85.6802 175.916 87.6429 172.844 89.057C169.772 90.4711 166.456 91.1781 162.896 91.1781ZM195.163 90.2273L195.127 53.6558H204.05L204.087 56.9107C205.33 55.5941 206.817 54.5579 208.548 53.8021C210.279 53.0219 212.145 52.6318 214.144 52.6318C215.485 52.6318 216.826 52.8269 218.167 53.217L214.656 62.2136C213.729 61.8478 212.803 61.665 211.876 61.665C210.438 61.665 209.121 62.0185 207.927 62.7256C206.756 63.4082 205.818 64.3469 205.111 65.5416C204.428 66.7118 204.087 68.0162 204.087 69.4547V90.2273H195.163ZM236.647 91.1781C233.282 91.1781 230.21 90.3126 227.431 88.5816C224.676 86.8505 222.469 84.5343 220.811 81.633C219.178 78.7073 218.361 75.4768 218.361 71.9416C218.361 69.2597 218.836 66.7606 219.787 64.4444C220.738 62.1038 222.042 60.0558 223.7 58.3004C225.383 56.5206 227.333 55.1309 229.552 54.1313C231.77 53.1317 234.135 52.6318 236.647 52.6318C240.011 52.6318 243.071 53.4974 245.826 55.2284C248.606 56.9595 250.812 59.2878 252.446 62.2136C254.103 65.1393 254.932 68.3819 254.932 71.9416C254.932 74.5991 254.457 77.0859 253.506 79.4021C252.555 81.7183 251.239 83.7663 249.556 85.5461C247.898 87.3016 245.96 88.6791 243.742 89.6787C241.547 90.6783 239.182 91.1781 236.647 91.1781ZM236.647 82.2547C238.426 82.2547 240.023 81.7793 241.438 80.8284C242.852 79.8776 243.961 78.6219 244.766 77.0616C245.594 75.5012 246.009 73.7945 246.009 71.9416C246.009 70.0398 245.582 68.3088 244.729 66.7484C243.9 65.1637 242.766 63.908 241.328 62.9816C239.914 62.0307 238.353 61.5553 236.647 61.5553C234.891 61.5553 233.306 62.0307 231.892 62.9816C230.478 63.9324 229.357 65.2002 228.528 66.785C227.699 68.3697 227.284 70.0886 227.284 71.9416C227.284 73.8677 227.711 75.6109 228.564 77.1713C229.418 78.7317 230.551 79.9751 231.966 80.9016C233.404 81.8037 234.964 82.2547 236.647 82.2547ZM277.783 90.2273H268.933L256.718 53.6558H265.459L273.395 77.3176L281.294 53.6558H290.108L298.007 77.3176L305.943 53.6558H314.684L302.469 90.2273H293.619L285.683 66.4558L277.783 90.2273ZM353.928 90.2273H343.651L335.313 75.8547L330.193 81.9621V90.2273H321.27V35.3701H330.193V68.1016L342.298 53.6558H353.964L341.42 68.6136L353.928 90.2273ZM360.412 90.2273V53.6558H369.336V56.9107C370.579 55.5941 372.067 54.5579 373.798 53.8021C375.529 53.0219 377.394 52.6318 379.393 52.6318C381.929 52.6318 384.257 53.2292 386.378 54.4238C388.524 55.6185 390.23 57.2155 391.498 59.2147C392.79 57.2155 394.497 55.6185 396.618 54.4238C398.739 53.2292 401.068 52.6318 403.603 52.6318C406.285 52.6318 408.711 53.2901 410.881 54.6067C413.075 55.8989 414.819 57.6421 416.111 59.8364C417.427 62.0063 418.086 64.4322 418.086 67.1141V90.2273H409.162V69.4913C409.162 68.0772 408.809 66.785 408.102 65.6147C407.419 64.42 406.492 63.4692 405.322 62.7621C404.176 62.0307 402.884 61.665 401.446 61.665C400.007 61.665 398.703 62.0185 397.532 62.7256C396.387 63.4082 395.46 64.3347 394.753 65.505C394.046 66.6753 393.692 68.004 393.692 69.4913V90.2273H384.769V69.4913C384.769 68.004 384.428 66.6753 383.745 65.505C383.062 64.3347 382.136 63.4082 380.966 62.7256C379.795 62.0185 378.491 61.665 377.052 61.665C375.638 61.665 374.346 62.0307 373.176 62.7621C372.006 63.4692 371.067 64.42 370.36 65.6147C369.677 66.785 369.336 68.0772 369.336 69.4913V90.2273H360.412Z" fill="#003C43"/>
</svg>
