<svg width="24" height="25" viewBox="0 0 24 25" fill="none" xmlns="http://www.w3.org/2000/svg">
<path d="M20.947 8.75955C20.9369 8.00217 20.7951 7.25232 20.528 6.54355C20.2964 5.9457 19.9425 5.40275 19.4892 4.94938C19.0358 4.49601 18.4929 4.1422 17.895 3.91055C17.1953 3.6479 16.4562 3.50589 15.709 3.49055C14.747 3.44755 14.442 3.43555 12 3.43555C9.55801 3.43555 9.24501 3.43555 8.29001 3.49055C7.54317 3.506 6.80436 3.64801 6.10501 3.91055C5.50707 4.14204 4.96403 4.49579 4.51064 4.94918C4.05725 5.40257 3.7035 5.94561 3.47201 6.54355C3.20884 7.24268 3.06713 7.98166 3.05301 8.72855C3.01001 9.69155 2.99701 9.99655 2.99701 12.4385C2.99701 14.8805 2.99701 15.1925 3.05301 16.1485C3.06801 16.8965 3.20901 17.6345 3.47201 18.3355C3.70389 18.9333 4.05791 19.4761 4.51145 19.9293C4.96499 20.3825 5.50807 20.7361 6.10601 20.9675C6.80344 21.2407 7.54238 21.3929 8.29101 21.4175C9.25401 21.4605 9.55901 21.4735 12.001 21.4735C14.443 21.4735 14.756 21.4735 15.711 21.4175C16.4582 21.4028 17.1974 21.2611 17.897 20.9985C18.4947 20.7666 19.0375 20.4127 19.4909 19.9594C19.9442 19.5061 20.2981 18.9632 20.53 18.3655C20.793 17.6655 20.934 16.9275 20.949 16.1785C20.992 15.2165 21.005 14.9115 21.005 12.4685C21.003 10.0265 21.003 9.71655 20.947 8.75955ZM11.994 17.0565C9.44001 17.0565 7.37101 14.9875 7.37101 12.4335C7.37101 9.87955 9.44001 7.81055 11.994 7.81055C13.2201 7.81055 14.396 8.29761 15.263 9.16459C16.1299 10.0316 16.617 11.2075 16.617 12.4335C16.617 13.6596 16.1299 14.8355 15.263 15.7025C14.396 16.5695 13.2201 17.0565 11.994 17.0565ZM16.801 8.71755C16.6594 8.71768 16.5192 8.68989 16.3883 8.63576C16.2575 8.58163 16.1386 8.50223 16.0385 8.4021C15.9383 8.30197 15.8589 8.18308 15.8048 8.05224C15.7507 7.92139 15.7229 7.78115 15.723 7.63955C15.723 7.49805 15.7509 7.35793 15.805 7.22721C15.8592 7.09648 15.9385 6.97769 16.0386 6.87764C16.1387 6.77758 16.2574 6.69822 16.3882 6.64407C16.5189 6.58992 16.659 6.56205 16.8005 6.56205C16.942 6.56205 17.0821 6.58992 17.2129 6.64407C17.3436 6.69822 17.4624 6.77758 17.5624 6.87764C17.6625 6.97769 17.7418 7.09648 17.796 7.22721C17.8501 7.35793 17.878 7.49805 17.878 7.63955C17.878 8.23555 17.396 8.71755 16.801 8.71755Z" fill="#074F48"/>
<path d="M11.994 15.4367C13.6525 15.4367 14.997 14.0922 14.997 12.4337C14.997 10.7752 13.6525 9.43066 11.994 9.43066C10.3355 9.43066 8.99103 10.7752 8.99103 12.4337C8.99103 14.0922 10.3355 15.4367 11.994 15.4367Z" fill="#074F48"/>
</svg>
