<svg width="24" height="25" viewBox="0 0 24 25" fill="none" xmlns="http://www.w3.org/2000/svg">
<path d="M20 3.45459H4C3.73478 3.45459 3.48043 3.55995 3.29289 3.74748C3.10536 3.93502 3 4.18937 3 4.45459V20.4546C3 20.7198 3.10536 20.9742 3.29289 21.1617C3.48043 21.3492 3.73478 21.4546 4 21.4546H20C20.2652 21.4546 20.5196 21.3492 20.7071 21.1617C20.8946 20.9742 21 20.7198 21 20.4546V4.45459C21 4.18937 20.8946 3.93502 20.7071 3.74748C20.5196 3.55995 20.2652 3.45459 20 3.45459ZM8.339 18.7916H5.667V10.2016H8.339V18.7916ZM7.003 9.02859C6.59244 9.02859 6.1987 8.8655 5.9084 8.57519C5.61809 8.28489 5.455 7.89114 5.455 7.48059C5.455 7.07003 5.61809 6.6763 5.9084 6.38599C6.1987 6.09568 6.59244 5.93259 7.003 5.93259C7.41356 5.93259 7.80729 6.09568 8.0976 6.38599C8.38791 6.6763 8.551 7.07003 8.551 7.48059C8.551 7.89114 8.38791 8.28489 8.0976 8.57519C7.80729 8.8655 7.41356 9.02859 7.003 9.02859ZM18.338 18.7916H15.669V14.6146C15.669 13.6186 15.651 12.3376 14.281 12.3376C12.891 12.3376 12.68 13.4236 12.68 14.5446V18.7926H10.013V10.2026H12.573V11.3766H12.61C12.965 10.7016 13.837 9.98959 15.134 9.98959C17.838 9.98959 18.337 11.7676 18.337 14.0816L18.338 18.7916Z" fill="#074F48"/>
</svg>
