<svg width="138" height="43" viewBox="0 0 138 43" fill="none" xmlns="http://www.w3.org/2000/svg">
<mask id="path-1-outside-1_245_15" maskUnits="userSpaceOnUse" x="0" y="6.22727" width="35" height="31" fill="black">
<rect fill="white" y="6.22727" width="35" height="31"/>
<path d="M17.43 35.7313C15.106 35.7313 13.006 35.4233 11.13 34.8073C9.254 34.1913 7.644 33.2953 6.3 32.1193C4.984 30.9153 3.962 29.4453 3.234 27.7093C2.534 25.9733 2.184 24.0133 2.184 21.8293C2.184 19.6173 2.562 17.6293 3.318 15.8653C4.074 14.1013 5.152 12.6033 6.552 11.3713C7.952 10.1113 9.618 9.15927 11.55 8.51527C13.482 7.84327 15.61 7.50727 17.934 7.50727C20.65 7.50727 23.002 7.92727 24.99 8.76727C26.978 9.60727 28.56 10.7833 29.736 12.2953C30.912 13.7793 31.584 15.5433 31.752 17.5873H27.342C26.978 16.3833 26.376 15.3473 25.536 14.4793C24.724 13.6113 23.674 12.9393 22.386 12.4633C21.126 11.9593 19.642 11.7073 17.934 11.7073C15.694 11.7073 13.748 12.1413 12.096 13.0093C10.472 13.8493 9.226 15.0393 8.358 16.5793C7.49 18.0913 7.056 19.8413 7.056 21.8293C7.056 23.8173 7.434 25.5393 8.19 26.9953C8.974 28.4233 10.15 29.5433 11.718 30.3553C13.286 31.1393 15.232 31.5313 17.556 31.5313C19.348 31.5313 20.916 31.2653 22.26 30.7333C23.632 30.1733 24.766 29.4033 25.662 28.4233C26.558 27.4433 27.188 26.3093 27.552 25.0213L29.694 24.5173C29.302 28.1293 28.014 30.9013 25.83 32.8333C23.674 34.7653 20.874 35.7313 17.43 35.7313ZM28.56 35.2273C28.56 34.3313 28.602 33.3233 28.686 32.2033C28.77 31.0553 28.868 29.8933 28.98 28.7173C29.12 27.5133 29.246 26.4353 29.358 25.4833H18.102V22.0393H32.802V35.2273H28.56Z"/>
</mask>
<path d="M17.43 35.7313C15.106 35.7313 13.006 35.4233 11.13 34.8073C9.254 34.1913 7.644 33.2953 6.3 32.1193C4.984 30.9153 3.962 29.4453 3.234 27.7093C2.534 25.9733 2.184 24.0133 2.184 21.8293C2.184 19.6173 2.562 17.6293 3.318 15.8653C4.074 14.1013 5.152 12.6033 6.552 11.3713C7.952 10.1113 9.618 9.15927 11.55 8.51527C13.482 7.84327 15.61 7.50727 17.934 7.50727C20.65 7.50727 23.002 7.92727 24.99 8.76727C26.978 9.60727 28.56 10.7833 29.736 12.2953C30.912 13.7793 31.584 15.5433 31.752 17.5873H27.342C26.978 16.3833 26.376 15.3473 25.536 14.4793C24.724 13.6113 23.674 12.9393 22.386 12.4633C21.126 11.9593 19.642 11.7073 17.934 11.7073C15.694 11.7073 13.748 12.1413 12.096 13.0093C10.472 13.8493 9.226 15.0393 8.358 16.5793C7.49 18.0913 7.056 19.8413 7.056 21.8293C7.056 23.8173 7.434 25.5393 8.19 26.9953C8.974 28.4233 10.15 29.5433 11.718 30.3553C13.286 31.1393 15.232 31.5313 17.556 31.5313C19.348 31.5313 20.916 31.2653 22.26 30.7333C23.632 30.1733 24.766 29.4033 25.662 28.4233C26.558 27.4433 27.188 26.3093 27.552 25.0213L29.694 24.5173C29.302 28.1293 28.014 30.9013 25.83 32.8333C23.674 34.7653 20.874 35.7313 17.43 35.7313ZM28.56 35.2273C28.56 34.3313 28.602 33.3233 28.686 32.2033C28.77 31.0553 28.868 29.8933 28.98 28.7173C29.12 27.5133 29.246 26.4353 29.358 25.4833H18.102V22.0393H32.802V35.2273H28.56Z" fill="#003C43"/>
<path d="M6.3 32.1193L5.48998 33.0046L5.49979 33.0136L5.50979 33.0224L6.3 32.1193ZM3.234 27.7093L2.12107 28.158L2.12417 28.1657L2.12737 28.1733L3.234 27.7093ZM3.318 15.8653L4.42097 16.338L3.318 15.8653ZM6.552 11.3713L7.3448 12.2722L7.35476 12.2632L6.552 11.3713ZM11.55 8.51527L11.9295 9.65369L11.9369 9.65123L11.9442 9.64867L11.55 8.51527ZM24.99 8.76727L25.4571 7.66189L24.99 8.76727ZM29.736 12.2953L28.7887 13.032L28.7955 13.0406L29.736 12.2953ZM31.752 17.5873V18.7873H33.0547L32.948 17.489L31.752 17.5873ZM27.342 17.5873L26.1933 17.9345L26.4512 18.7873H27.342V17.5873ZM25.536 14.4793L24.6597 15.2991L24.6666 15.3065L24.6737 15.3138L25.536 14.4793ZM22.386 12.4633L21.9403 13.5774L21.9551 13.5833L21.97 13.5889L22.386 12.4633ZM12.096 13.0093L12.6473 14.0752L12.6542 14.0716L12.096 13.0093ZM8.358 16.5793L9.39874 17.1767L9.40338 17.1685L8.358 16.5793ZM8.19 26.9953L7.12501 27.5483L7.13141 27.5606L7.13811 27.5728L8.19 26.9953ZM11.718 30.3553L11.1662 31.4209L11.1737 31.4248L11.1813 31.4286L11.718 30.3553ZM22.26 30.7333L22.7017 31.8491L22.7135 31.8443L22.26 30.7333ZM25.662 28.4233L24.7764 27.6135V27.6136L25.662 28.4233ZM27.552 25.0213L27.2772 23.8532L26.5894 24.015L26.3972 24.6949L27.552 25.0213ZM29.694 24.5173L30.887 24.6467L31.07 22.9607L29.4192 23.3492L29.694 24.5173ZM25.83 32.8333L25.0349 31.9345L25.0292 31.9396L25.83 32.8333ZM28.56 35.2273H27.36V36.4273H28.56V35.2273ZM28.686 32.2033L29.8826 32.293L29.8828 32.2908L28.686 32.2033ZM28.98 28.7173L27.788 28.5787L27.7866 28.5911L27.7854 28.6035L28.98 28.7173ZM29.358 25.4833L30.5498 25.6235L30.7075 24.2833H29.358V25.4833ZM18.102 25.4833H16.902V26.6833H18.102V25.4833ZM18.102 22.0393V20.8393H16.902V22.0393H18.102ZM32.802 22.0393H34.002V20.8393H32.802V22.0393ZM32.802 35.2273V36.4273H34.002V35.2273H32.802ZM17.43 34.5313C15.2112 34.5313 13.2403 34.2372 11.5044 33.6672L10.7556 35.9474C12.7717 36.6094 15.0008 36.9313 17.43 36.9313V34.5313ZM11.5044 33.6672C9.76525 33.0961 8.30068 32.2753 7.09021 31.2162L5.50979 33.0224C6.98732 34.3152 8.74275 35.2864 10.7556 35.9474L11.5044 33.6672ZM7.11002 31.2339C5.92929 30.1537 5.00523 28.83 4.34063 27.2452L2.12737 28.1733C2.91877 30.0605 4.03871 31.6769 5.48998 33.0046L7.11002 31.2339ZM4.34693 27.2605C3.71319 25.6888 3.384 23.8848 3.384 21.8293H0.984C0.984 24.1418 1.35481 26.2577 2.12107 28.158L4.34693 27.2605ZM3.384 21.8293C3.384 19.7552 3.73802 17.9315 4.42097 16.338L2.21503 15.3926C1.38598 17.327 0.984 19.4794 0.984 21.8293H3.384ZM4.42097 16.338C5.10879 14.7331 6.08267 13.3828 7.34475 12.2721L5.75925 10.4704C4.22133 11.8238 3.03921 13.4695 2.21503 15.3926L4.42097 16.338ZM7.35476 12.2632C8.62242 11.1223 10.1412 10.2498 11.9295 9.65369L11.1705 7.37685C9.09485 8.06874 7.28158 9.10021 5.74924 10.4793L7.35476 12.2632ZM11.9442 9.64867C13.7335 9.02631 15.7262 8.70727 17.934 8.70727V6.30727C15.4938 6.30727 13.2305 6.66023 11.1558 7.38187L11.9442 9.64867ZM17.934 8.70727C20.5296 8.70727 22.7156 9.10898 24.5229 9.87265L25.4571 7.66189C23.2884 6.74556 20.7704 6.30727 17.934 6.30727V8.70727ZM24.5229 9.87265C26.3464 10.6431 27.754 11.7016 28.7888 13.032L30.6832 11.5585C29.366 9.86498 27.6096 8.57143 25.4571 7.66189L24.5229 9.87265ZM28.7955 13.0406C29.812 14.3233 30.4058 15.8572 30.556 17.6856L32.948 17.489C32.7622 15.2294 32.012 13.2352 30.6765 11.55L28.7955 13.0406ZM31.752 16.3873H27.342V18.7873H31.752V16.3873ZM28.4907 17.24C28.0737 15.8609 27.3768 14.6558 26.3983 13.6448L24.6737 15.3138C25.3752 16.0387 25.8823 16.9056 26.1933 17.9345L28.4907 17.24ZM26.4123 13.6595C25.4543 12.6354 24.2379 11.8683 22.802 11.3377L21.97 13.5889C23.1101 14.0102 23.9937 14.5872 24.6597 15.2991L26.4123 13.6595ZM22.8317 11.3491C21.3985 10.7758 19.7567 10.5073 17.934 10.5073V12.9073C19.5273 12.9073 20.8535 13.1427 21.9403 13.5774L22.8317 11.3491ZM17.934 10.5073C15.5382 10.5073 13.3933 10.9721 11.5378 11.947L12.6542 14.0716C14.1027 13.3104 15.8498 12.9073 17.934 12.9073V10.5073ZM11.5447 11.9434C9.72062 12.8869 8.29947 14.2392 7.31262 15.9901L9.40338 17.1685C10.1525 15.8393 11.2234 14.8116 12.6473 14.0751L11.5447 11.9434ZM7.3173 15.9818C6.33099 17.6999 5.856 19.6615 5.856 21.8293H8.256C8.256 20.021 8.64901 18.4826 9.3987 17.1767L7.3173 15.9818ZM5.856 21.8293C5.856 23.9694 6.26342 25.8889 7.12501 27.5483L9.255 26.4423C8.60458 25.1896 8.256 23.6651 8.256 21.8293H5.856ZM7.13811 27.5728C8.04635 29.2271 9.40532 30.509 11.1662 31.4209L12.2698 29.2897C10.8947 28.5775 9.90165 27.6195 9.24189 26.4178L7.13811 27.5728ZM11.1813 31.4286C12.9612 32.3185 15.1038 32.7313 17.556 32.7313V30.3313C15.3602 30.3313 13.6108 29.9601 12.2547 29.282L11.1813 31.4286ZM17.556 32.7313C19.4642 32.7313 21.1878 32.4483 22.7017 31.849L21.8183 29.6175C20.6442 30.0823 19.2318 30.3313 17.556 30.3313V32.7313ZM22.7135 31.8443C24.2308 31.225 25.5184 30.3587 26.5476 29.233L24.7764 27.6136C24.0136 28.4478 23.0332 29.1216 21.8065 29.6223L22.7135 31.8443ZM26.5476 29.233C27.5708 28.1139 28.2924 26.814 28.7068 25.3476L26.3972 24.6949C26.0836 25.8045 25.5452 26.7726 24.7764 27.6135L26.5476 29.233ZM27.8268 26.1894L29.9688 25.6854L29.4192 23.3492L27.2772 23.8532L27.8268 26.1894ZM28.501 24.3878C28.133 27.7789 26.9437 30.2459 25.0349 31.9345L26.6251 33.7321C29.0843 31.5566 30.471 28.4796 30.887 24.6467L28.501 24.3878ZM25.0292 31.9396C23.1337 33.6381 20.6376 34.5313 17.43 34.5313V36.9313C21.1104 36.9313 24.2143 35.8924 26.6308 33.727L25.0292 31.9396ZM29.76 35.2273C29.76 34.3676 29.8003 33.3903 29.8826 32.293L27.4894 32.1135C27.4037 33.2563 27.36 34.295 27.36 35.2273H29.76ZM29.8828 32.2908C29.9661 31.1518 30.0634 29.9985 30.1746 28.831L27.7854 28.6035C27.6726 29.788 27.5739 30.9587 27.4892 32.1157L29.8828 32.2908ZM30.172 28.8559C30.3119 27.6523 30.4379 26.5748 30.5498 25.6235L28.1662 25.3431C28.0541 26.2957 27.9281 27.3743 27.788 28.5787L30.172 28.8559ZM29.358 24.2833H18.102V26.6833H29.358V24.2833ZM19.302 25.4833V22.0393H16.902V25.4833H19.302ZM18.102 23.2393H32.802V20.8393H18.102V23.2393ZM31.602 22.0393V35.2273H34.002V22.0393H31.602ZM32.802 34.0273H28.56V36.4273H32.802V34.0273Z" fill="#003C43" mask="url(#path-1-outside-1_245_15)"/>
<path d="M18 20.6273H17.4V21.2273V25.3939V25.9939H18H27.9V36.2273V36.8273H28.5H33H33.6V36.2273V21.2273V20.6273H33H18Z" fill="#007F73" stroke="#007F73" stroke-width="1.2"/>
<path d="M53.216 30.0393C52.048 30.0393 50.96 29.8113 49.952 29.3553C48.952 28.8993 48.08 28.2713 47.336 27.4713C46.592 26.6633 46.008 25.7353 45.584 24.6873C45.168 23.6313 44.96 22.5033 44.96 21.3033C44.96 20.0393 45.184 18.8793 45.632 17.8233C46.088 16.7673 46.708 15.8513 47.492 15.0753C48.276 14.2993 49.164 13.6993 50.156 13.2753C51.156 12.8513 52.196 12.6393 53.276 12.6393C54.484 12.6393 55.656 12.9233 56.792 13.4913C57.936 14.0513 58.944 14.9193 59.816 16.0953L57.2 17.4993C56.664 16.8433 56.048 16.3553 55.352 16.0353C54.664 15.7073 53.96 15.5433 53.24 15.5433C52.536 15.5433 51.86 15.6873 51.212 15.9753C50.572 16.2633 50 16.6713 49.496 17.1993C49 17.7193 48.608 18.3353 48.32 19.0473C48.032 19.7513 47.888 20.5233 47.888 21.3633C47.888 22.1553 48.028 22.9033 48.308 23.6073C48.588 24.3033 48.972 24.9153 49.46 25.4433C49.956 25.9633 50.528 26.3713 51.176 26.6673C51.824 26.9633 52.52 27.1113 53.264 27.1113C53.76 27.1113 54.244 27.0353 54.716 26.8833C55.196 26.7233 55.644 26.4953 56.06 26.1993C56.484 25.9033 56.86 25.5433 57.188 25.1193C57.524 24.6953 57.804 24.2153 58.028 23.6793H54.968V21.1233H61.472C61.504 22.3473 61.312 23.4953 60.896 24.5673C60.48 25.6393 59.892 26.5873 59.132 27.4113C58.372 28.2353 57.488 28.8793 56.48 29.3433C55.472 29.8073 54.384 30.0393 53.216 30.0393ZM63.8036 29.7273L63.7916 17.7273H66.7196L66.7316 18.7953C67.1396 18.3633 67.6276 18.0233 68.1956 17.7753C68.7636 17.5193 69.3756 17.3913 70.0316 17.3913C70.4716 17.3913 70.9116 17.4553 71.3516 17.5833L70.1996 20.5353C69.8956 20.4153 69.5916 20.3553 69.2876 20.3553C68.8156 20.3553 68.3836 20.4713 67.9916 20.7033C67.6076 20.9273 67.2996 21.2353 67.0676 21.6273C66.8436 22.0113 66.7316 22.4393 66.7316 22.9113V29.7273H63.8036ZM77.4153 30.0393C76.3113 30.0393 75.3033 29.7553 74.3913 29.1873C73.4873 28.6193 72.7633 27.8593 72.2193 26.9073C71.6833 25.9473 71.4153 24.8873 71.4153 23.7273C71.4153 22.8473 71.5713 22.0273 71.8833 21.2673C72.1953 20.4993 72.6233 19.8273 73.1673 19.2513C73.7193 18.6673 74.3593 18.2113 75.0873 17.8833C75.8153 17.5553 76.5913 17.3913 77.4153 17.3913C78.5193 17.3913 79.5233 17.6753 80.4273 18.2433C81.3393 18.8113 82.0633 19.5753 82.5993 20.5353C83.1433 21.4953 83.4153 22.5593 83.4153 23.7273C83.4153 24.5993 83.2593 25.4153 82.9473 26.1753C82.6353 26.9353 82.2033 27.6073 81.6513 28.1913C81.1073 28.7673 80.4713 29.2193 79.7433 29.5473C79.0233 29.8753 78.2473 30.0393 77.4153 30.0393ZM77.4153 27.1113C77.9993 27.1113 78.5233 26.9553 78.9873 26.6433C79.4513 26.3313 79.8153 25.9193 80.0793 25.4073C80.3513 24.8953 80.4873 24.3353 80.4873 23.7273C80.4873 23.1033 80.3473 22.5353 80.0673 22.0233C79.7953 21.5033 79.4233 21.0913 78.9513 20.7873C78.4873 20.4753 77.9753 20.3193 77.4153 20.3193C76.8393 20.3193 76.3193 20.4753 75.8553 20.7873C75.3913 21.0993 75.0233 21.5153 74.7513 22.0353C74.4793 22.5553 74.3433 23.1193 74.3433 23.7273C74.3433 24.3593 74.4833 24.9313 74.7633 25.4433C75.0433 25.9553 75.4153 26.3633 75.8793 26.6673C76.3513 26.9633 76.8633 27.1113 77.4153 27.1113ZM90.9133 29.7273H88.0093L84.0013 17.7273H86.8693L89.4733 25.4913L92.0653 17.7273H94.9573L97.5493 25.4913L100.153 17.7273H103.021L99.0133 29.7273H96.1093L93.5053 21.9273L90.9133 29.7273ZM115.898 29.7273H112.526L109.79 25.0113L108.11 27.0153V29.7273H105.182V11.7273H108.11V22.4673L112.082 17.7273H115.91L111.794 22.6353L115.898 29.7273ZM118.026 29.7273V17.7273H120.954V18.7953C121.362 18.3633 121.85 18.0233 122.418 17.7753C122.986 17.5193 123.598 17.3913 124.254 17.3913C125.086 17.3913 125.85 17.5873 126.546 17.9793C127.25 18.3713 127.81 18.8953 128.226 19.5513C128.65 18.8953 129.21 18.3713 129.906 17.9793C130.602 17.5873 131.366 17.3913 132.198 17.3913C133.078 17.3913 133.874 17.6073 134.586 18.0393C135.306 18.4633 135.878 19.0353 136.302 19.7553C136.734 20.4673 136.95 21.2633 136.95 22.1433V29.7273H134.022V22.9233C134.022 22.4593 133.906 22.0353 133.674 21.6513C133.45 21.2593 133.146 20.9473 132.762 20.7153C132.386 20.4753 131.962 20.3553 131.49 20.3553C131.018 20.3553 130.59 20.4713 130.206 20.7033C129.83 20.9273 129.526 21.2313 129.294 21.6153C129.062 21.9993 128.946 22.4353 128.946 22.9233V29.7273H126.018V22.9233C126.018 22.4353 125.906 21.9993 125.682 21.6153C125.458 21.2313 125.154 20.9273 124.77 20.7033C124.386 20.4713 123.958 20.3553 123.486 20.3553C123.022 20.3553 122.598 20.4753 122.214 20.7153C121.83 20.9473 121.522 21.2593 121.29 21.6513C121.066 22.0353 120.954 22.4593 120.954 22.9233V29.7273H118.026Z" fill="#003C43"/>
</svg>
