<svg width="24" height="25" viewBox="0 0 24 25" fill="none" xmlns="http://www.w3.org/2000/svg">
<path d="M19.59 7.14459C18.5932 6.92538 17.6914 6.39603 17.0141 5.63248C16.3368 4.86894 15.9188 3.91046 15.82 2.89459V2.45459H12.37V16.1246C12.3707 16.7312 12.1806 17.3226 11.8265 17.815C11.4724 18.3075 10.9723 18.6761 10.3971 18.8686C9.82187 19.061 9.20068 19.0677 8.6215 18.8875C8.04232 18.7073 7.53452 18.3494 7.17002 17.8646C6.84347 17.4354 6.64351 16.9235 6.59275 16.3866C6.54199 15.8497 6.64247 15.3093 6.8828 14.8266C7.12314 14.3438 7.49375 13.938 7.95274 13.6548C8.41172 13.3717 8.94075 13.2227 9.48002 13.2246C9.77826 13.2229 10.075 13.2667 10.36 13.3546V9.85459C10.0284 9.81352 9.69413 9.7968 9.36002 9.80459C8.12933 9.83747 6.93494 10.2285 5.92311 10.9299C4.91127 11.6312 4.12591 12.6124 3.6632 13.7532C3.20049 14.8941 3.0805 16.1451 3.31794 17.3531C3.55538 18.5612 4.13993 19.6737 5.00002 20.5546C5.88151 21.4508 7.00952 22.0647 8.24072 22.3184C9.47192 22.572 10.7507 22.454 11.9147 21.9792C13.0786 21.5044 14.0752 20.6943 14.7776 19.6518C15.4801 18.6094 15.8569 17.3816 15.86 16.1246V9.12459C17.2515 10.1185 18.92 10.6502 20.63 10.6446V7.24459C20.2941 7.24598 19.959 7.21246 19.63 7.14459H19.59Z" fill="#074F48"/>
</svg>
