<svg width="24" height="25" viewBox="0 0 24 25" fill="none" xmlns="http://www.w3.org/2000/svg">
<path d="M19.633 8.45163C19.646 8.62663 19.646 8.80063 19.646 8.97463C19.646 14.2996 15.593 20.4356 8.186 20.4356C5.904 20.4356 3.784 19.7746 2 18.6266C2.324 18.6636 2.636 18.6766 2.973 18.6766C4.78599 18.681 6.54765 18.0748 7.974 16.9556C7.13342 16.9404 6.31858 16.6631 5.64324 16.1624C4.9679 15.6616 4.46578 14.9625 4.207 14.1626C4.456 14.1996 4.706 14.2246 4.968 14.2246C5.329 14.2246 5.692 14.1746 6.029 14.0876C5.11676 13.9034 4.29647 13.409 3.70762 12.6883C3.11876 11.9677 2.79769 11.0653 2.799 10.1346V10.0846C3.336 10.3836 3.959 10.5706 4.619 10.5956C4.06609 10.2282 3.61272 9.72966 3.29934 9.14442C2.98596 8.55919 2.82231 7.90549 2.823 7.24163C2.823 6.49363 3.022 5.80763 3.371 5.20963C4.38314 6.45465 5.6455 7.47319 7.07634 8.19929C8.50717 8.92539 10.0746 9.34285 11.677 9.42463C11.615 9.12463 11.577 8.81363 11.577 8.50163C11.5767 7.97259 11.6807 7.44869 11.8831 6.95987C12.0854 6.47106 12.3821 6.02691 12.7562 5.65282C13.1303 5.27873 13.5744 4.98204 14.0632 4.77971C14.5521 4.57738 15.076 4.47337 15.605 4.47363C16.765 4.47363 17.812 4.95963 18.548 5.74563C19.4498 5.57125 20.3145 5.24206 21.104 4.77263C20.8034 5.70345 20.1738 6.49274 19.333 6.99263C20.1328 6.90141 20.9144 6.69109 21.652 6.36863C21.1011 7.17173 20.4185 7.87598 19.633 8.45163Z" fill="#074F48"/>
</svg>
