<svg width="24" height="25" viewBox="0 0 24 25" fill="none" xmlns="http://www.w3.org/2000/svg">
<path d="M21.593 7.6576C21.4791 7.235 21.2565 6.8496 20.9474 6.53976C20.6383 6.22993 20.2534 6.00646 19.831 5.8916C18.265 5.4616 12 5.4546 12 5.4546C12 5.4546 5.73602 5.4476 4.16902 5.8586C3.74695 5.97874 3.36285 6.20537 3.05359 6.51673C2.74433 6.82809 2.52031 7.21372 2.40302 7.6366C1.99002 9.2026 1.98602 12.4506 1.98602 12.4506C1.98602 12.4506 1.98202 15.7146 2.39202 17.2646C2.62202 18.1216 3.29702 18.7986 4.15502 19.0296C5.73702 19.4596 11.985 19.4666 11.985 19.4666C11.985 19.4666 18.25 19.4736 19.816 19.0636C20.2385 18.9489 20.6238 18.726 20.9337 18.4168C21.2436 18.1076 21.4674 17.7228 21.583 17.3006C21.997 15.7356 22 12.4886 22 12.4886C22 12.4886 22.02 9.2236 21.593 7.6576ZM9.99603 15.4596L10.001 9.4596L15.208 12.4646L9.99603 15.4596Z" fill="#074F48"/>
</svg>
